<?xml version="1.0" encoding="UTF-8"?>
<svg width="86px" height="101px" viewBox="-10 0 106 101" version="1.1" xmlns="http://www.w3.org/2000/svg" xmlns:xlink="http://www.w3.org/1999/xlink">
    <!-- Generator: Sketch 55.2 (78181) - https://sketchapp.com -->
    <title>icon_colors</title>
    <desc>Created with Sketch.</desc>
    <g id="Page-1" stroke="none" stroke-width="1" fill="none" fill-rule="evenodd">
        <g id="icon" opacity="0.676153274" transform="translate(-7.000000, 15.000000)" fill-rule="nonzero">
            <path d="M34.081,34.22 C33.794,30.472 30.656,27.623 26.968,27.623 C26.784,27.623 26.595,27.631 26.403,27.641 L26.41,27.641 C22.664,27.932 19.811,31.067 19.8139976,34.758 C19.8139976,34.944 19.821,35.129 19.835,35.32 L21.304,54.3 C21.496,56.761 22.908,58.823 24.904,59.958 C24.065,58.739 23.471,57.317 23.244,55.755 L23.244,55.755 C23.175,55.276 23.14,54.796 23.14,54.316 C23.142,49.449 26.71,45.204 31.665,44.484 L34.843,44.02 L34.081,34.22 Z" id="Path" fill="#7EF0FF"></path>
            <path d="M51.41,32.871 C51.125,29.128 47.985,26.277 44.298,26.277 C44.112,26.277 43.927,26.287 43.741,26.305 L43.734,26.305 C39.992,26.588 37.143,29.725 37.143,33.417 C37.143,33.607 37.15,33.788 37.165,33.981 L37.905,43.576 L52.08,41.518 L51.409,32.876 L51.409,32.871 L51.41,32.871 Z" id="Path" fill="#FFFFFF"></path>
            <path d="M69.375,0.759 L68.272,0.548 C63.847,-0.302 59.57,2.602 58.724,7.027 L53.681,33.339 L54.459,43.418 L37.219,45.927 L36.369,46.048 L35.871,46.123 L31.98,46.687 C28.136,47.243 25.367,50.549 25.367,54.316 C25.367,54.685 25.394,55.06 25.449,55.435 C26.499,62.915 38.725,60.714 38.725,60.714 L54.95,58.958 L49.366,61.981 C48.488,62.313 47.543,62.532 46.548,62.612 L46.543,62.612 C46.312,62.632 46.084,62.637 45.86,62.637 C45.582,62.637 45.315,62.627 45.059,62.612 L45.052,62.612 L42.725,62.454 L38.75,62.089 L31.307,62.7 L30.396,62.895 C30,62.985 29.585,63.055 29.151,63.09 C28.902,63.11 28.658,63.125 28.416,63.125 C23.567,63.119 19.47,59.385 19.087,54.469 L17.618,35.491 C17.596,35.243 17.587,34.999 17.587,34.757 C17.587,34.183 17.642,33.616 17.741,33.068 L15.607,16.614 C15.046,12.333 11.123,9.309 6.842,9.87 C2.556,10.427 -0.459,14.344 0.097,18.631 C0.097,18.631 3.932,48.019 3.971,48.212 C7.785,82.601 12.304,86.175 12.354,86.183 C16.466,90.599 25.212,93.765 35.413,93.986 C47.12,94.254 57.086,90.552 60.388,85.25 L75.852,10.312 C76.701,5.884 73.8,1.609 69.375,0.759 Z" id="Path" fill="#7EF0FF"></path>
        </g>
        <g id="icon" opacity="0.756324405" transform="translate(14.000000, 9.000000)" fill-rule="nonzero">
            <path d="M34.081,34.22 C33.794,30.472 30.656,27.623 26.968,27.623 C26.784,27.623 26.595,27.631 26.403,27.641 L26.41,27.641 C22.664,27.932 19.811,31.067 19.8139976,34.758 C19.8139976,34.944 19.821,35.129 19.835,35.32 L21.304,54.3 C21.496,56.761 22.908,58.823 24.904,59.958 C24.065,58.739 23.471,57.317 23.244,55.755 L23.244,55.755 C23.175,55.276 23.14,54.796 23.14,54.316 C23.142,49.449 26.71,45.204 31.665,44.484 L34.843,44.02 L34.081,34.22 Z" id="Path" fill="#FA86FE"></path>
            <path d="M51.41,32.871 C51.125,29.128 47.985,26.277 44.298,26.277 C44.112,26.277 43.927,26.287 43.741,26.305 L43.734,26.305 C39.992,26.588 37.143,29.725 37.143,33.417 C37.143,33.607 37.15,33.788 37.165,33.981 L37.905,43.576 L52.08,41.518 L51.409,32.876 L51.409,32.871 L51.41,32.871 Z" id="Path" fill="#FFFFFF"></path>
            <path d="M69.375,0.759 L68.272,0.548 C63.847,-0.302 59.57,2.602 58.724,7.027 L53.681,33.339 L54.459,43.418 L37.219,45.927 L36.369,46.048 L35.871,46.123 L31.98,46.687 C28.136,47.243 25.367,50.549 25.367,54.316 C25.367,54.685 25.394,55.06 25.449,55.435 C26.499,62.915 38.725,60.714 38.725,60.714 L54.95,58.958 L49.366,61.981 C48.488,62.313 47.543,62.532 46.548,62.612 L46.543,62.612 C46.312,62.632 46.084,62.637 45.86,62.637 C45.582,62.637 45.315,62.627 45.059,62.612 L45.052,62.612 L42.725,62.454 L38.75,62.089 L31.307,62.7 L30.396,62.895 C30,62.985 29.585,63.055 29.151,63.09 C28.902,63.11 28.658,63.125 28.416,63.125 C23.567,63.119 19.47,59.385 19.087,54.469 L17.618,35.491 C17.596,35.243 17.587,34.999 17.587,34.757 C17.587,34.183 17.642,33.616 17.741,33.068 L15.607,16.614 C15.046,12.333 11.123,9.309 6.842,9.87 C2.556,10.427 -0.459,14.344 0.097,18.631 C0.097,18.631 3.932,48.019 3.971,48.212 C7.785,82.601 12.304,86.175 12.354,86.183 C16.466,90.599 25.212,93.765 35.413,93.986 C47.12,94.254 57.086,90.552 60.388,85.25 L75.852,10.312 C76.701,5.884 73.8,1.609 69.375,0.759 Z" id="Path" fill="#FA86FE"></path>
        </g>
        <g id="icon" opacity="0.602748326" transform="translate(2.000000, -5.000000)" fill="#0EF506" fill-rule="nonzero">
            <path d="M34.081,34.22 C33.794,30.472 30.656,27.623 26.968,27.623 C26.784,27.623 26.595,27.631 26.403,27.641 L26.41,27.641 C22.664,27.932 19.811,31.067 19.8139976,34.758 C19.8139976,34.944 19.821,35.129 19.835,35.32 L21.304,54.3 C21.496,56.761 22.908,58.823 24.904,59.958 C24.065,58.739 23.471,57.317 23.244,55.755 L23.244,55.755 C23.175,55.276 23.14,54.796 23.14,54.316 C23.142,49.449 26.71,45.204 31.665,44.484 L34.843,44.02 L34.081,34.22 Z" id="Path"></path>
            <path d="M51.41,32.871 C51.125,29.128 47.985,26.277 44.298,26.277 C44.112,26.277 43.927,26.287 43.741,26.305 L43.734,26.305 C39.992,26.588 37.143,29.725 37.143,33.417 C37.143,33.607 37.15,33.788 37.165,33.981 L37.905,43.576 L52.08,41.518 L51.409,32.876 L51.409,32.871 L51.41,32.871 Z" id="Path"></path>
            <path d="M69.375,0.759 L68.272,0.548 C63.847,-0.302 59.57,2.602 58.724,7.027 L53.681,33.339 L54.459,43.418 L37.219,45.927 L36.369,46.048 L35.871,46.123 L31.98,46.687 C28.136,47.243 25.367,50.549 25.367,54.316 C25.367,54.685 25.394,55.06 25.449,55.435 C26.499,62.915 38.725,60.714 38.725,60.714 L54.95,58.958 L49.366,61.981 C48.488,62.313 47.543,62.532 46.548,62.612 L46.543,62.612 C46.312,62.632 46.084,62.637 45.86,62.637 C45.582,62.637 45.315,62.627 45.059,62.612 L45.052,62.612 L42.725,62.454 L38.75,62.089 L31.307,62.7 L30.396,62.895 C30,62.985 29.585,63.055 29.151,63.09 C28.902,63.11 28.658,63.125 28.416,63.125 C23.567,63.119 19.47,59.385 19.087,54.469 L17.618,35.491 C17.596,35.243 17.587,34.999 17.587,34.757 C17.587,34.183 17.642,33.616 17.741,33.068 L15.607,16.614 C15.046,12.333 11.123,9.309 6.842,9.87 C2.556,10.427 -0.459,14.344 0.097,18.631 C0.097,18.631 3.932,48.019 3.971,48.212 C7.785,82.601 12.304,86.175 12.354,86.183 C16.466,90.599 25.212,93.765 35.413,93.986 C47.12,94.254 57.086,90.552 60.388,85.25 L75.852,10.312 C76.701,5.884 73.8,1.609 69.375,0.759 Z" id="Path"></path>
        </g>
        <g id="icon" transform="translate(3.000000, 7.000000)" fill="#FFFFFF" fill-rule="nonzero">
            <path d="M34.081,34.22 C33.794,30.472 30.656,27.623 26.968,27.623 C26.784,27.623 26.595,27.631 26.403,27.641 L26.41,27.641 C22.664,27.932 19.811,31.067 19.8139976,34.758 C19.8139976,34.944 19.821,35.129 19.835,35.32 L21.304,54.3 C21.496,56.761 22.908,58.823 24.904,59.958 C24.065,58.739 23.471,57.317 23.244,55.755 L23.244,55.755 C23.175,55.276 23.14,54.796 23.14,54.316 C23.142,49.449 26.71,45.204 31.665,44.484 L34.843,44.02 L34.081,34.22 Z" id="Path"></path>
            <path d="M51.41,32.871 C51.125,29.128 47.985,26.277 44.298,26.277 C44.112,26.277 43.927,26.287 43.741,26.305 L43.734,26.305 C39.992,26.588 37.143,29.725 37.143,33.417 C37.143,33.607 37.15,33.788 37.165,33.981 L37.905,43.576 L52.08,41.518 L51.409,32.876 L51.409,32.871 L51.41,32.871 Z" id="Path"></path>
            <path d="M69.375,0.759 L68.272,0.548 C63.847,-0.302 59.57,2.602 58.724,7.027 L53.681,33.339 L54.459,43.418 L37.219,45.927 L36.369,46.048 L35.871,46.123 L31.98,46.687 C28.136,47.243 25.367,50.549 25.367,54.316 C25.367,54.685 25.394,55.06 25.449,55.435 C26.499,62.915 38.725,60.714 38.725,60.714 L54.95,58.958 L49.366,61.981 C48.488,62.313 47.543,62.532 46.548,62.612 L46.543,62.612 C46.312,62.632 46.084,62.637 45.86,62.637 C45.582,62.637 45.315,62.627 45.059,62.612 L45.052,62.612 L42.725,62.454 L38.75,62.089 L31.307,62.7 L30.396,62.895 C30,62.985 29.585,63.055 29.151,63.09 C28.902,63.11 28.658,63.125 28.416,63.125 C23.567,63.119 19.47,59.385 19.087,54.469 L17.618,35.491 C17.596,35.243 17.587,34.999 17.587,34.757 C17.587,34.183 17.642,33.616 17.741,33.068 L15.607,16.614 C15.046,12.333 11.123,9.309 6.842,9.87 C2.556,10.427 -0.459,14.344 0.097,18.631 C0.097,18.631 3.932,48.019 3.971,48.212 C7.785,82.601 12.304,86.175 12.354,86.183 C16.466,90.599 25.212,93.765 35.413,93.986 C47.12,94.254 57.086,90.552 60.388,85.25 L75.852,10.312 C76.701,5.884 73.8,1.609 69.375,0.759 Z" id="Path"></path>
        </g>
    </g>
</svg>